Coordinates
version=1
nRows=38
nColumns=12
inDegrees=yes

Units are S.I. units (second, meters, Newtons, ...)
Angles are in degrees

endheader
time	SC_y	SC_z	SC_x	AC_y	AC_z	AC_x	GH_y	GH_z	GH_yy	EL_x	PS_y
       0.0              -47.31           15.3          67.98          58.12          5.725         -16.77         -45.51          68.45          62.85          87.24          123.0
   0.02479              -47.31           15.3          67.97          58.11          5.725         -16.76          -45.5          68.45          62.84          87.24          123.0
   0.04959              -47.31           15.3          67.96          58.11          5.725         -16.76         -45.48          68.46          62.82          87.25          123.0
   0.07438              -47.31           15.3          67.95          58.11          5.725         -16.75         -45.46          68.46           62.8          87.25          123.0
   0.09917              -47.31           15.3          67.94          58.11          5.725         -16.75         -45.44          68.46          62.78          87.26          123.0
     0.124              -47.31          15.31          67.93           58.1          5.726         -16.74         -45.42          68.47          62.75          87.27          123.0
    0.1488              -47.32          15.31          67.92           58.1          5.726         -16.73         -45.39          68.47          62.73          87.27          123.0
    0.1736              -47.32          15.31           67.9          58.09          5.726         -16.72         -45.37          68.47           62.7          87.28          123.0
    0.1983              -47.32          15.31          67.89          58.09          5.726         -16.72         -45.34          68.48          62.67          87.29          123.0
    0.2231              -47.32          15.31          67.87          58.09          5.726         -16.71         -45.31          68.48          62.64           87.3          123.0
    0.2479              -47.32          15.32          67.85          58.08          5.727          -16.7         -45.28          68.49          62.61           87.3          123.0
    0.2727              -47.33          15.32          67.83          58.07          5.727         -16.69         -45.24          68.49          62.58          87.31          123.0
    0.2975              -47.33          15.32          67.81          58.07          5.727         -16.68         -45.21           68.5          62.54          87.32          123.0
    0.3223              -47.33          15.32          67.79          58.06          5.728         -16.67         -45.17           68.5           62.5          87.34          123.0
    0.3471              -47.33          15.33          67.77          58.06          5.728         -16.66         -45.13          68.51          62.45          87.35          123.0
    0.3719              -47.34          15.33          67.74          58.05          5.728         -16.64         -45.08          68.52           62.4          87.36          123.0
    0.3967              -47.34          15.33          67.71          58.04          5.729         -16.63         -45.03          68.52          62.35          87.37          123.0
    0.4215              -47.35          15.34          67.68          58.03          5.729         -16.61         -44.97          68.53           62.3          87.39          123.0
    0.4463              -47.35          15.34          67.65          58.02           5.73          -16.6         -44.91          68.54          62.23          87.41          123.0
    0.4711              -47.35          15.35          67.61          58.01           5.73         -16.58         -44.85          68.55          62.17          87.42          123.0
    0.4959              -47.36          15.35          67.57           58.0          5.731         -16.56         -44.78          68.56          62.09          87.44          123.1
    0.5207              -47.37          15.36          67.52          57.99          5.731         -16.53          -44.7          68.57          62.01          87.47          123.1
    0.5454              -47.37          15.36          67.48          57.97          5.732         -16.51         -44.61          68.59          61.92          87.49          123.1
    0.5702              -47.38          15.37          67.42          57.96          5.733         -16.48         -44.51           68.6          61.82          87.52          123.1
     0.595              -47.39          15.38          67.36          57.94          5.733         -16.45         -44.41          68.62          61.71          87.55          123.1
    0.6198               -47.4          15.39          67.29          57.92          5.734         -16.41         -44.29          68.63          61.58          87.58          123.1
    0.6446              -47.41           15.4          67.22           57.9          5.735         -16.38         -44.15          68.65          61.44          87.62          123.1
    0.6694              -47.42          15.41          67.13          57.88          5.737         -16.33          -44.0          68.67          61.29          87.66          123.1
    0.6942              -47.43          15.42          67.03          57.85          5.738         -16.28         -43.83           68.7          61.11          87.71          123.1
     0.719              -47.44          15.43          66.93          57.82          5.739         -16.23         -43.64          68.73          60.91          87.76          123.1
    0.7438              -47.46          15.45           66.8          57.78          5.741         -16.16         -43.42          68.76          60.68          87.82          123.1
    0.7686              -47.48          15.47          66.66          57.74          5.743         -16.09         -43.16           68.8          60.42          87.89          123.1
    0.7934               -47.5          15.49          66.49           57.7          5.745         -16.01         -42.87          68.84          60.11          87.97          123.2
    0.8182              -47.52          15.51           66.3          57.64          5.748         -15.91         -42.53          68.89          59.76          88.07          123.2
     0.843              -47.55          15.54          66.07          57.58          5.751         -15.79         -42.13          68.95          59.35          88.18          123.2
    0.8678              -47.59          15.58          65.81           57.5          5.754         -15.66         -41.66          69.02          58.86          88.31          123.2
    0.8925              -47.63          15.62          65.49          57.41          5.759          -15.5          -41.1           69.1          58.28          88.46          123.3
    0.9173              -47.68          15.66          65.12          57.31          5.764         -15.31         -40.43           69.2          57.59          88.65          123.3
